<?xml version="1.0" encoding="UTF-8" standalone="no"?>
<!DOCTYPE svg PUBLIC "-//W3C//DTD SVG 1.1//EN"
 "http://www.w3.org/Graphics/SVG/1.1/DTD/svg11.dtd">
<!-- Generated by graphviz version 2.43.0 (0)
 -->
<!-- Title: world Pages: 1 -->
<svg width="310pt" height="716pt"
 viewBox="0.00 0.00 310.00 716.00" xmlns="http://www.w3.org/2000/svg" xmlns:xlink="http://www.w3.org/1999/xlink">
<g id="graph0" class="graph" transform="scale(1 1) rotate(0) translate(4 712)">
<title>world</title>
<polygon fill="white" stroke="transparent" points="-4,4 -4,-712 306,-712 306,4 -4,4"/>
<text text-anchor="middle" x="151" y="-692.8" font-family="Monospace" font-size="14.00">Realtime Data (38.150.1.0/24)</text>
<g id="clust1" class="cluster">
<title>cluster_origins</title>
<polygon fill="palegreen" stroke="palegreen" points="8,-305 8,-380 82,-380 82,-305 8,-305"/>
<text text-anchor="middle" x="45" y="-364.8" font-family="Monospace" font-size="14.00">Origins</text>
</g>
<g id="clust2" class="cluster">
<title>cluster_t1isp</title>
<polygon fill="lightblue" stroke="lightblue" points="102,-8 102,-677 294,-677 294,-8 102,-8"/>
<text text-anchor="middle" x="198" y="-661.8" font-family="Monospace" font-size="14.00">Tier 1 ISPs</text>
</g>
<!-- AS979 -->
<g id="node1" class="node">
<title>AS979</title>
<g id="a_node1"><a xlink:href="/search?q=AS979" xlink:title="NetLab Global">
<polygon fill="white" stroke="limegreen" stroke-width="3" points="74,-349 16,-349 16,-313 74,-313 74,-349"/>
<text text-anchor="start" x="24" y="-332.8" font-family="Monospace" font-weight="bold" font-size="14.00">AS979</text>
<text text-anchor="start" x="26.5" y="-322" font-family="Monospace" font-size="10.00">NetLab</text>
</a>
</g>
</g>
<!-- AS2914 -->
<g id="node4" class="node">
<title>AS2914</title>
<g id="a_node4"><a xlink:href="/search?q=AS2914" xlink:title="NTT America, Inc.">
<polygon fill="white" stroke="#005ea5" stroke-width="3" points="176,-376 110,-376 110,-340 176,-340 176,-376"/>
<text text-anchor="start" x="118" y="-359.8" font-family="Monospace" font-weight="bold" font-size="14.00">AS2914</text>
<text text-anchor="start" x="133.5" y="-349" font-family="Monospace" font-size="10.00">NTT</text>
</a>
</g>
</g>
<!-- AS979&#45;&gt;AS2914 -->
<g id="edge9" class="edge">
<title>AS979&#45;&gt;AS2914</title>
<path fill="none" stroke="black" d="M74.14,-344.5C74.14,-344.5 99.67,-344.5 99.67,-344.5"/>
<polygon fill="black" stroke="black" points="99.67,-348 109.67,-344.5 99.67,-341 99.67,-348"/>
</g>
<!-- AS3257 -->
<g id="node5" class="node">
<title>AS3257</title>
<g id="a_node5"><a xlink:href="/search?q=AS3257" xlink:title="GTT Communications Inc.">
<polygon fill="white" stroke="#005ea5" stroke-width="3" points="176,-322 110,-322 110,-286 176,-286 176,-322"/>
<text text-anchor="start" x="118" y="-305.8" font-family="Monospace" font-weight="bold" font-size="14.00">AS3257</text>
<text text-anchor="start" x="133.5" y="-295" font-family="Monospace" font-size="10.00">GTT</text>
</a>
</g>
</g>
<!-- AS979&#45;&gt;AS3257 -->
<g id="edge21" class="edge">
<title>AS979&#45;&gt;AS3257</title>
<path fill="none" stroke="black" d="M74.14,-317.5C74.14,-317.5 99.67,-317.5 99.67,-317.5"/>
<polygon fill="black" stroke="black" points="99.67,-321 109.67,-317.5 99.67,-314 99.67,-321"/>
</g>
<!-- AS174 -->
<g id="node2" class="node">
<title>AS174</title>
<g id="a_node2"><a xlink:href="/search?q=AS174" xlink:title="Cogent Communications, LLC">
<polygon fill="white" stroke="#005ea5" stroke-width="3" points="278,-52 220,-52 220,-16 278,-16 278,-52"/>
<text text-anchor="start" x="228" y="-35.8" font-family="Monospace" font-weight="bold" font-size="14.00">AS174</text>
<text text-anchor="start" x="230.5" y="-25" font-family="Monospace" font-size="10.00">Cogent</text>
</a>
</g>
</g>
<!-- AS1299 -->
<g id="node3" class="node">
<title>AS1299</title>
<g id="a_node3"><a xlink:href="/search?q=AS1299" xlink:title="Arelion (fka. Telia Carrier)">
<polygon fill="white" stroke="#005ea5" stroke-width="3" points="282,-322 216,-322 216,-286 282,-286 282,-322"/>
<text text-anchor="start" x="224" y="-305.8" font-family="Monospace" font-weight="bold" font-size="14.00">AS1299</text>
<text text-anchor="start" x="227.5" y="-295" font-family="Monospace" font-size="10.00">Arelion</text>
</a>
</g>
</g>
<!-- AS2914&#45;&gt;AS1299 -->
<g id="edge7" class="edge">
<title>AS2914&#45;&gt;AS1299</title>
<path fill="none" stroke="black" d="M176.04,-367C178.47,-367 180,-367 180,-367 180,-367 180,-317.5 180,-317.5 180,-317.5 205.71,-317.5 205.71,-317.5"/>
<polygon fill="black" stroke="black" points="205.71,-321 215.71,-317.5 205.71,-314 205.71,-321"/>
</g>
<!-- AS3320 -->
<g id="node6" class="node">
<title>AS3320</title>
<g id="a_node6"><a xlink:href="/search?q=AS3320" xlink:title="Deutsche Telekom AG">
<polygon fill="white" stroke="#005ea5" stroke-width="3" points="282,-376 216,-376 216,-340 282,-340 282,-376"/>
<text text-anchor="start" x="224" y="-359.8" font-family="Monospace" font-weight="bold" font-size="14.00">AS3320</text>
<text text-anchor="start" x="236.5" y="-349" font-family="Monospace" font-size="10.00">DTAG</text>
</a>
</g>
</g>
<!-- AS2914&#45;&gt;AS3320 -->
<g id="edge6" class="edge">
<title>AS2914&#45;&gt;AS3320</title>
<path fill="none" stroke="black" d="M176.25,-371.5C176.25,-371.5 205.87,-371.5 205.87,-371.5"/>
<polygon fill="black" stroke="black" points="205.87,-375 215.87,-371.5 205.87,-368 205.87,-375"/>
</g>
<!-- AS3356 -->
<g id="node7" class="node">
<title>AS3356</title>
<g id="a_node7"><a xlink:href="/search?q=AS3356" xlink:title="Lumen (Level 3)">
<polygon fill="white" stroke="#005ea5" stroke-width="3" points="282,-430 216,-430 216,-394 282,-394 282,-430"/>
<text text-anchor="start" x="224" y="-413.8" font-family="Monospace" font-weight="bold" font-size="14.00">AS3356</text>
<text text-anchor="start" x="233.5" y="-403" font-family="Monospace" font-size="10.00">Lumen</text>
</a>
</g>
</g>
<!-- AS2914&#45;&gt;AS3356 -->
<g id="edge5" class="edge">
<title>AS2914&#45;&gt;AS3356</title>
<path fill="none" stroke="black" d="M165,-376C165,-393.68 165,-418 165,-418 165,-418 205.8,-418 205.8,-418"/>
<polygon fill="black" stroke="black" points="205.8,-421.5 215.8,-418 205.8,-414.5 205.8,-421.5"/>
</g>
<!-- AS3491 -->
<g id="node8" class="node">
<title>AS3491</title>
<g id="a_node8"><a xlink:href="/search?q=AS3491" xlink:title="PCCW Global, Inc.">
<polygon fill="white" stroke="#005ea5" stroke-width="3" points="282,-484 216,-484 216,-448 282,-448 282,-484"/>
<text text-anchor="start" x="224" y="-467.8" font-family="Monospace" font-weight="bold" font-size="14.00">AS3491</text>
<text text-anchor="start" x="236.5" y="-457" font-family="Monospace" font-size="10.00">PCCW</text>
</a>
</g>
</g>
<!-- AS2914&#45;&gt;AS3491 -->
<g id="edge16" class="edge">
<title>AS2914&#45;&gt;AS3491</title>
<path fill="none" stroke="black" d="M154,-376.06C154,-408.21 154,-472 154,-472 154,-472 205.77,-472 205.77,-472"/>
<polygon fill="black" stroke="black" points="205.77,-475.5 215.77,-472 205.77,-468.5 205.77,-475.5"/>
</g>
<!-- AS5511 -->
<g id="node9" class="node">
<title>AS5511</title>
<g id="a_node9"><a xlink:href="/search?q=AS5511" xlink:title="Orange S.A.">
<polygon fill="white" stroke="#005ea5" stroke-width="3" points="282,-538 216,-538 216,-502 282,-502 282,-538"/>
<text text-anchor="start" x="224" y="-521.8" font-family="Monospace" font-weight="bold" font-size="14.00">AS5511</text>
<text text-anchor="start" x="230.5" y="-511" font-family="Monospace" font-size="10.00">Orange</text>
</a>
</g>
</g>
<!-- AS2914&#45;&gt;AS5511 -->
<g id="edge20" class="edge">
<title>AS2914&#45;&gt;AS5511</title>
<path fill="none" stroke="black" d="M143,-376.3C143,-419.84 143,-526 143,-526 143,-526 205.75,-526 205.75,-526"/>
<polygon fill="black" stroke="black" points="205.75,-529.5 215.75,-526 205.75,-522.5 205.75,-529.5"/>
</g>
<!-- AS6453 -->
<g id="node10" class="node">
<title>AS6453</title>
<g id="a_node10"><a xlink:href="/search?q=AS6453" xlink:title="TATA Communications (America) Inc">
<polygon fill="white" stroke="#005ea5" stroke-width="3" points="282,-592 216,-592 216,-556 282,-556 282,-592"/>
<text text-anchor="start" x="224" y="-575.8" font-family="Monospace" font-weight="bold" font-size="14.00">AS6453</text>
<text text-anchor="start" x="236.5" y="-565" font-family="Monospace" font-size="10.00">TATA</text>
</a>
</g>
</g>
<!-- AS2914&#45;&gt;AS6453 -->
<g id="edge18" class="edge">
<title>AS2914&#45;&gt;AS6453</title>
<path fill="none" stroke="black" d="M132,-376.17C132,-429.19 132,-580 132,-580 132,-580 205.79,-580 205.79,-580"/>
<polygon fill="black" stroke="black" points="205.79,-583.5 215.79,-580 205.79,-576.5 205.79,-583.5"/>
</g>
<!-- AS6461 -->
<g id="node11" class="node">
<title>AS6461</title>
<g id="a_node11"><a xlink:href="/search?q=AS6461" xlink:title="Zayo Bandwidth">
<polygon fill="white" stroke="#005ea5" stroke-width="3" points="282,-106 216,-106 216,-70 282,-70 282,-106"/>
<text text-anchor="start" x="224" y="-89.8" font-family="Monospace" font-weight="bold" font-size="14.00">AS6461</text>
<text text-anchor="start" x="236.5" y="-79" font-family="Monospace" font-size="10.00">Zayo</text>
</a>
</g>
</g>
<!-- AS2914&#45;&gt;AS6461 -->
<g id="edge1" class="edge">
<title>AS2914&#45;&gt;AS6461</title>
<path fill="none" stroke="black" d="M176.22,-344.5C188.28,-344.5 199,-344.5 199,-344.5 199,-344.5 199,-94 199,-94 199,-94 205.93,-94 205.93,-94"/>
<polygon fill="black" stroke="black" points="205.93,-97.5 215.93,-94 205.93,-90.5 205.93,-97.5"/>
</g>
<!-- AS6762 -->
<g id="node12" class="node">
<title>AS6762</title>
<g id="a_node12"><a xlink:href="/search?q=AS6762" xlink:title="Telecom Italia Sparkle (Seabone)">
<polygon fill="white" stroke="#005ea5" stroke-width="3" points="282,-160 216,-160 216,-124 282,-124 282,-160"/>
<text text-anchor="start" x="224" y="-143.8" font-family="Monospace" font-weight="bold" font-size="14.00">AS6762</text>
<text text-anchor="start" x="227.5" y="-133" font-family="Monospace" font-size="10.00">Sparkle</text>
</a>
</g>
</g>
<!-- AS2914&#45;&gt;AS6762 -->
<g id="edge22" class="edge">
<title>AS2914&#45;&gt;AS6762</title>
<path fill="none" stroke="black" d="M176.16,-349C190.04,-349 203,-349 203,-349 203,-349 203,-148 203,-148 203,-148 205.57,-148 205.57,-148"/>
<polygon fill="black" stroke="black" points="205.57,-151.5 215.57,-148 205.57,-144.5 205.57,-151.5"/>
</g>
<!-- AS6830 -->
<g id="node13" class="node">
<title>AS6830</title>
<g id="a_node13"><a xlink:href="/search?q=AS6830" xlink:title="Liberty Global Europe Holding B.V.">
<polygon fill="white" stroke="#005ea5" stroke-width="3" points="282,-214 216,-214 216,-178 282,-178 282,-214"/>
<text text-anchor="start" x="224" y="-197.8" font-family="Monospace" font-weight="bold" font-size="14.00">AS6830</text>
<text text-anchor="start" x="227.5" y="-187" font-family="Monospace" font-size="10.00">Liberty</text>
</a>
</g>
</g>
<!-- AS2914&#45;&gt;AS6830 -->
<g id="edge24" class="edge">
<title>AS2914&#45;&gt;AS6830</title>
<path fill="none" stroke="black" d="M176.34,-353.5C191.46,-353.5 206,-353.5 206,-353.5 206,-353.5 206,-202 206,-202 206,-202 207,-202 207,-202"/>
<polygon fill="black" stroke="black" points="205.97,-205.5 215.97,-202 205.97,-198.5 205.97,-205.5"/>
</g>
<!-- AS7018 -->
<g id="node14" class="node">
<title>AS7018</title>
<g id="a_node14"><a xlink:href="/search?q=AS7018" xlink:title="AT&amp;T Enterprises, LLC">
<polygon fill="white" stroke="#005ea5" stroke-width="3" points="282,-646 216,-646 216,-610 282,-610 282,-646"/>
<text text-anchor="start" x="224" y="-629.8" font-family="Monospace" font-weight="bold" font-size="14.00">AS7018</text>
<text text-anchor="start" x="236.5" y="-619" font-family="Monospace" font-size="10.00">AT&amp;T</text>
</a>
</g>
</g>
<!-- AS2914&#45;&gt;AS7018 -->
<g id="edge19" class="edge">
<title>AS2914&#45;&gt;AS7018</title>
<path fill="none" stroke="black" d="M121,-376.13C121,-436.67 121,-628 121,-628 121,-628 205.7,-628 205.7,-628"/>
<polygon fill="black" stroke="black" points="205.7,-631.5 215.7,-628 205.7,-624.5 205.7,-631.5"/>
</g>
<!-- AS12956 -->
<g id="node15" class="node">
<title>AS12956</title>
<g id="a_node15"><a xlink:href="/search?q=AS12956" xlink:title="Telxius (Telefonica Global)">
<polygon fill="white" stroke="#005ea5" stroke-width="3" points="286,-268 212,-268 212,-232 286,-232 286,-268"/>
<text text-anchor="start" x="220" y="-251.8" font-family="Monospace" font-weight="bold" font-size="14.00">AS12956</text>
<text text-anchor="start" x="227.5" y="-241" font-family="Monospace" font-size="10.00">Telxius</text>
</a>
</g>
</g>
<!-- AS2914&#45;&gt;AS12956 -->
<g id="edge23" class="edge">
<title>AS2914&#45;&gt;AS12956</title>
<path fill="none" stroke="black" d="M176.39,-358C192.76,-358 209,-358 209,-358 209,-358 209,-256 209,-256 209,-256 209.29,-256 209.29,-256"/>
<polygon fill="black" stroke="black" points="201.88,-259.5 211.88,-256 201.88,-252.5 201.88,-259.5"/>
</g>
<!-- AS3257&#45;&gt;AS174 -->
<g id="edge10" class="edge">
<title>AS3257&#45;&gt;AS174</title>
<path fill="none" stroke="black" d="M121,-285.87C121,-225.33 121,-34 121,-34 121,-34 209.95,-34 209.95,-34"/>
<polygon fill="black" stroke="black" points="209.95,-37.5 219.95,-34 209.95,-30.5 209.95,-37.5"/>
</g>
<!-- AS3257&#45;&gt;AS1299 -->
<g id="edge15" class="edge">
<title>AS3257&#45;&gt;AS1299</title>
<path fill="none" stroke="black" d="M176.25,-313C176.25,-313 205.87,-313 205.87,-313"/>
<polygon fill="black" stroke="black" points="205.87,-316.5 215.87,-313 205.87,-309.5 205.87,-316.5"/>
</g>
<!-- AS3257&#45;&gt;AS3320 -->
<g id="edge14" class="edge">
<title>AS3257&#45;&gt;AS3320</title>
<path fill="none" stroke="black" d="M176.26,-290.5C186.91,-290.5 196,-290.5 196,-290.5 196,-290.5 196,-362.5 196,-362.5 196,-362.5 205.74,-362.5 205.74,-362.5"/>
<polygon fill="black" stroke="black" points="205.74,-366 215.74,-362.5 205.74,-359 205.74,-366"/>
</g>
<!-- AS3257&#45;&gt;AS3356 -->
<g id="edge12" class="edge">
<title>AS3257&#45;&gt;AS3356</title>
<path fill="none" stroke="black" d="M176.07,-295C185.37,-295 193,-295 193,-295 193,-295 193,-406 193,-406 193,-406 205.78,-406 205.78,-406"/>
<polygon fill="black" stroke="black" points="205.78,-409.5 215.78,-406 205.78,-402.5 205.78,-409.5"/>
</g>
<!-- AS3257&#45;&gt;AS3491 -->
<g id="edge4" class="edge">
<title>AS3257&#45;&gt;AS3491</title>
<path fill="none" stroke="black" d="M176.15,-299.5C183.93,-299.5 190,-299.5 190,-299.5 190,-299.5 190,-460 190,-460 190,-460 205.71,-460 205.71,-460"/>
<polygon fill="black" stroke="black" points="205.71,-463.5 215.71,-460 205.71,-456.5 205.71,-463.5"/>
</g>
<!-- AS3257&#45;&gt;AS5511 -->
<g id="edge8" class="edge">
<title>AS3257&#45;&gt;AS5511</title>
<path fill="none" stroke="black" d="M176.03,-304C181.8,-304 186,-304 186,-304 186,-304 186,-514 186,-514 186,-514 205.66,-514 205.66,-514"/>
<polygon fill="black" stroke="black" points="205.66,-517.5 215.66,-514 205.66,-510.5 205.66,-517.5"/>
</g>
<!-- AS3257&#45;&gt;AS6453 -->
<g id="edge11" class="edge">
<title>AS3257&#45;&gt;AS6453</title>
<path fill="none" stroke="black" d="M176.03,-308.5C180.18,-308.5 183,-308.5 183,-308.5 183,-308.5 183,-568 183,-568 183,-568 205.61,-568 205.61,-568"/>
<polygon fill="black" stroke="black" points="205.61,-571.5 215.61,-568 205.61,-564.5 205.61,-571.5"/>
</g>
<!-- AS3257&#45;&gt;AS6461 -->
<g id="edge13" class="edge">
<title>AS3257&#45;&gt;AS6461</title>
<path fill="none" stroke="black" d="M132,-285.83C132,-232.81 132,-82 132,-82 132,-82 205.79,-82 205.79,-82"/>
<polygon fill="black" stroke="black" points="205.79,-85.5 215.79,-82 205.79,-78.5 205.79,-85.5"/>
</g>
<!-- AS3257&#45;&gt;AS6762 -->
<g id="edge3" class="edge">
<title>AS3257&#45;&gt;AS6762</title>
<path fill="none" stroke="black" d="M143,-285.7C143,-242.16 143,-136 143,-136 143,-136 205.75,-136 205.75,-136"/>
<polygon fill="black" stroke="black" points="205.75,-139.5 215.75,-136 205.75,-132.5 205.75,-139.5"/>
</g>
<!-- AS3257&#45;&gt;AS6830 -->
<g id="edge17" class="edge">
<title>AS3257&#45;&gt;AS6830</title>
<path fill="none" stroke="black" d="M154,-285.94C154,-253.79 154,-190 154,-190 154,-190 205.77,-190 205.77,-190"/>
<polygon fill="black" stroke="black" points="205.77,-193.5 215.77,-190 205.77,-186.5 205.77,-193.5"/>
</g>
<!-- AS3257&#45;&gt;AS12956 -->
<g id="edge2" class="edge">
<title>AS3257&#45;&gt;AS12956</title>
<path fill="none" stroke="black" d="M165,-286C165,-268.32 165,-244 165,-244 165,-244 201.91,-244 201.91,-244"/>
<polygon fill="black" stroke="black" points="201.91,-247.5 211.91,-244 201.91,-240.5 201.91,-247.5"/>
</g>
</g>
</svg>
