<svg width="143" height="31" viewBox="0 0 143 31" fill="none" xmlns="http://www.w3.org/2000/svg">
<path d="M16.544 0.0124521C17.0158 0.0135121 17.383 0.417552 17.3332 0.880842L16.3259 10.2501C16.2711 10.7594 15.9684 11.2103 15.5147 11.4585L10.9472 13.9565C10.5062 14.1977 9.97546 14.2182 9.51676 14.0118L0.596452 9.9981C0.164562 9.8038 1.76579e-06 9.2816 0.243972 8.8796L3.00877 4.32364C3.27173 3.89031 3.87458 3.81124 4.24298 4.16174L10.7215 10.3256C11.0274 10.6166 11.49 10.6758 11.8608 10.4714C12.2399 10.2625 12.431 9.8292 12.3276 9.4128L10.232 0.972512C10.109 0.476922 10.4896 -0.00115789 11.0064 2.10665e-06L16.544 0.0124521Z" fill="#FF592C"/>
<path d="M0.105894 20.8691C-0.129076 20.465 0.0416742 19.949 0.472904 19.76L9.19345 15.9368C9.66745 15.729 10.2144 15.7624 10.6589 16.0263L15.1335 18.6833C15.5655 18.9399 15.8488 19.3834 15.8971 19.879L16.8373 29.5142C16.8828 29.9807 16.5071 30.3825 16.0325 30.3749L10.6545 30.2885C10.143 30.2803 9.77215 29.8043 9.89535 29.314L12.0619 20.6918C12.1642 20.2847 11.9848 19.8595 11.6201 19.6445C11.2474 19.4248 10.7719 19.4781 10.4584 19.7746L4.10388 25.7869C3.73076 26.1399 3.12115 26.0534 2.8638 25.611L0.105894 20.8691Z" fill="#FF592C"/>
<path d="M26.7637 5.94474C26.5333 5.53818 25.9972 5.41788 25.6115 5.68619L17.8112 11.1121C17.3872 11.4071 17.1354 11.8877 17.1365 12.3999L17.1476 17.5556C17.1487 18.0535 17.3887 18.5213 17.7944 18.8167L25.6844 24.5611C26.0664 24.8392 26.6085 24.7272 26.8455 24.3212L29.5321 19.7199C29.7876 19.2823 29.5644 18.7237 29.0751 18.5763L20.4702 15.9844C20.0639 15.862 19.7865 15.4917 19.787 15.0723C19.7875 14.6436 20.0779 14.268 20.4966 14.1547L28.9842 11.8578C29.4825 11.7229 29.7204 11.162 29.4681 10.7167L26.7637 5.94474Z" fill="#FF592C"/>
<path d="M53.8 19.2799L54.34 20.6799L50.66 22.9399C49.9533 23.1266 49.2733 23.2466 48.62 23.2999C47.98 23.3533 47.2867 23.3799 46.54 23.3799C44.86 23.3799 43.3733 23.0399 42.08 22.3599C40.7867 21.6799 39.78 20.7466 39.06 19.5599C38.3533 18.3599 38 16.9999 38 15.4799C38 13.9199 38.5267 12.4799 39.58 11.1599C40.6467 9.82661 41.96 8.77995 43.52 8.01995C45.0933 7.24661 46.5867 6.85995 48 6.85995C48.88 6.85995 49.9067 6.95995 51.08 7.15995C52.2667 7.35995 53.1333 7.57328 53.68 7.79995V13.0799H51.12C50.5733 11.8533 49.9333 10.9599 49.2 10.3999C48.48 9.82661 47.6933 9.53995 46.84 9.53995C46.08 9.53995 45.38 9.75995 44.74 10.1999C44.1133 10.6266 43.6133 11.2199 43.24 11.9799C42.88 12.7399 42.7 13.5866 42.7 14.5199C42.7 15.6533 42.88 16.6866 43.24 17.6199C43.6 18.5399 44.1533 19.2799 44.9 19.8399C45.6467 20.3999 46.5667 20.6799 47.66 20.6799H48.28C48.8 20.6799 49.2067 20.6666 49.5 20.6399V17.2199L46.22 16.4799L47.02 14.8799H55.7V16.2999L53.8 17.9599V19.2799Z" fill="#333333"/>
<path d="M64.0192 11.9399C65.0592 11.9399 65.9859 12.1733 66.7992 12.6399C67.6259 13.0933 68.2659 13.7266 68.7192 14.5399C69.1859 15.3399 69.4192 16.2333 69.4192 17.2199C69.4192 18.2866 69.0659 19.2799 68.3592 20.1999C67.6526 21.1199 66.7659 21.8533 65.6992 22.3999C64.6326 22.9333 63.5992 23.1999 62.5992 23.1999C61.5592 23.1999 60.6259 22.9733 59.7992 22.5199C58.9859 22.0533 58.3459 21.4199 57.8792 20.6199C57.4259 19.8066 57.1992 18.9066 57.1992 17.9199C57.1992 16.8533 57.5526 15.8599 58.2592 14.9399C58.9659 14.0199 59.8526 13.2933 60.9192 12.7599C61.9859 12.2133 63.0192 11.9399 64.0192 11.9399ZM62.8592 14.6199C62.4326 14.6199 62.0992 14.8199 61.8592 15.2199C61.6326 15.6066 61.5192 16.1866 61.5192 16.9599C61.5192 17.9999 61.7126 18.8533 62.0992 19.5199C62.4992 20.1866 63.0526 20.5199 63.7592 20.5199C64.1859 20.5199 64.5126 20.3199 64.7392 19.9199C64.9792 19.5199 65.0992 18.9333 65.0992 18.1599C65.0992 17.1199 64.8992 16.2733 64.4992 15.6199C64.1126 14.9533 63.5659 14.6199 62.8592 14.6199Z" fill="#333333"/>
<path d="M91.918 23.0799H84.838V21.9599L86.718 20.4799V10.8799L81.758 23.0599H80.018L74.978 10.7799V20.8599L77.198 21.7399L76.558 23.0399H71.378V21.9199L73.258 20.4399V9.53995L71.038 8.59995L71.698 7.29995H77.318L81.878 18.4199L86.398 7.29995H92.238V8.41995L90.338 9.89995V21.1199L92.558 21.7799L91.918 23.0799Z" fill="#333333"/>
<path d="M110.971 22.9999H103.531V21.8799L105.711 20.5799L104.491 17.5999H98.3114L97.2114 20.2799L100.271 21.6999L99.6314 22.9999H93.1714L92.558 21.7799L95.3314 20.2599L100.451 7.91995L103.911 6.89995L109.591 20.6799L112.472 21.9199L110.971 22.9999ZM101.431 10.0599L98.9514 16.0599H103.871L101.431 10.0599Z" fill="#333333"/>
<path d="M133.012 23.0799H125.932V21.9599L127.812 20.4799V10.8799L122.852 23.0599H121.112L116.072 10.7799V20.8599L118.292 21.7399L117.652 23.0399H112.472V21.9199L114.352 20.4399V9.53995L112.132 8.59995L112.792 7.29995H118.412L122.972 18.4199L127.492 7.29995H133.332V8.41995L131.432 9.89995V21.1199L133.652 21.7799L133.012 23.0799Z" fill="#333333"/>
<path d="M141.465 22.9999H135.145L133.652 21.7799L136.925 20.3799V15.7399L135.145 14.5599V13.4399L139.065 11.8399H140.325V21.0999L142.125 21.6999L141.465 22.9999ZM138.605 5.81995C139.178 5.81995 139.645 6.00661 140.005 6.37995C140.378 6.73995 140.565 7.19328 140.565 7.73995C140.565 8.12661 140.432 8.48661 140.165 8.81995C139.898 9.15328 139.565 9.41995 139.165 9.61995C138.765 9.81995 138.378 9.91995 138.005 9.91995C137.445 9.91995 136.978 9.73995 136.605 9.37995C136.245 9.00661 136.065 8.54661 136.065 7.99995C136.065 7.61328 136.198 7.25328 136.465 6.91995C136.732 6.58661 137.058 6.31995 137.445 6.11995C137.845 5.91995 138.232 5.81995 138.605 5.81995Z" fill="#333333"/>
</svg>
