<?xml version="1.0" encoding="UTF-8" standalone="no"?>
<!DOCTYPE svg PUBLIC "-//W3C//DTD SVG 1.1//EN"
 "http://www.w3.org/Graphics/SVG/1.1/DTD/svg11.dtd">
<!-- Generated by graphviz version 2.43.0 (0)
 -->
<!-- Title: world Pages: 1 -->
<svg width="751pt" height="506pt"
 viewBox="0.00 0.00 751.00 506.00" xmlns="http://www.w3.org/2000/svg" xmlns:xlink="http://www.w3.org/1999/xlink">
<g id="graph0" class="graph" transform="scale(1 1) rotate(0) translate(4 502)">
<title>world</title>
<polygon fill="white" stroke="transparent" points="-4,4 -4,-502 747,-502 747,4 -4,4"/>
<text text-anchor="middle" x="371.5" y="-482.8" font-family="Monospace" font-size="14.00">Realtime Data (151.244.134.0/24)</text>
<g id="clust1" class="cluster">
<title>cluster_origins</title>
<polygon fill="palegreen" stroke="palegreen" points="8,-65 8,-140 98,-140 98,-65 8,-65"/>
<text text-anchor="middle" x="53" y="-124.8" font-family="Monospace" font-size="14.00">Origins</text>
</g>
<g id="clust2" class="cluster">
<title>cluster_t1isp</title>
<polygon fill="lightblue" stroke="lightblue" points="449,-8 449,-467 735,-467 735,-8 449,-8"/>
<text text-anchor="middle" x="592" y="-451.8" font-family="Monospace" font-size="14.00">Tier 1 ISPs</text>
</g>
<!-- AS36002 -->
<g id="node1" class="node">
<title>AS36002</title>
<g id="a_node1"><a xlink:href="/search?q=AS36002" xlink:title="GoMami Networks">
<polygon fill="white" stroke="limegreen" stroke-width="3" points="90,-109 16,-109 16,-73 90,-73 90,-109"/>
<text text-anchor="start" x="24" y="-92.8" font-family="Monospace" font-weight="bold" font-size="14.00">AS36002</text>
<text text-anchor="start" x="34.5" y="-82" font-family="Monospace" font-size="10.00">GOMAMI</text>
</a>
</g>
</g>
<!-- AS49304 -->
<g id="node16" class="node">
<title>AS49304</title>
<g id="a_node16"><a xlink:href="/search?q=AS49304" xlink:title="SAKURA LINK LIMITED">
<polygon fill="none" stroke="black" points="200,-109 126,-109 126,-73 200,-73 200,-109"/>
<text text-anchor="start" x="134" y="-92.8" font-family="Monospace" font-weight="bold" font-size="14.00">AS49304</text>
<text text-anchor="start" x="144.5" y="-82" font-family="Monospace" font-size="10.00">SAKURA</text>
</a>
</g>
</g>
<!-- AS36002&#45;&gt;AS49304 -->
<g id="edge11" class="edge">
<title>AS36002&#45;&gt;AS49304</title>
<path fill="none" stroke="black" d="M90.24,-91C90.24,-91 115.8,-91 115.8,-91"/>
<polygon fill="black" stroke="black" points="115.8,-94.5 125.8,-91 115.8,-87.5 115.8,-94.5"/>
</g>
<!-- AS174 -->
<g id="node2" class="node">
<title>AS174</title>
<g id="a_node2"><a xlink:href="/search?q=AS174" xlink:title="Cogent Communications, LLC">
<polygon fill="white" stroke="#005ea5" stroke-width="3" points="519,-163 461,-163 461,-127 519,-127 519,-163"/>
<text text-anchor="start" x="469" y="-146.8" font-family="Monospace" font-weight="bold" font-size="14.00">AS174</text>
<text text-anchor="start" x="471.5" y="-136" font-family="Monospace" font-size="10.00">Cogent</text>
</a>
</g>
</g>
<!-- AS3257 -->
<g id="node5" class="node">
<title>AS3257</title>
<g id="a_node5"><a xlink:href="/search?q=AS3257" xlink:title="GTT Communications Inc.">
<polygon fill="white" stroke="#005ea5" stroke-width="3" points="727,-62 661,-62 661,-26 727,-26 727,-62"/>
<text text-anchor="start" x="669" y="-45.8" font-family="Monospace" font-weight="bold" font-size="14.00">AS3257</text>
<text text-anchor="start" x="684.5" y="-35" font-family="Monospace" font-size="10.00">GTT</text>
</a>
</g>
</g>
<!-- AS174&#45;&gt;AS3257 -->
<g id="edge12" class="edge">
<title>AS174&#45;&gt;AS3257</title>
<path fill="none" stroke="black" d="M519.34,-135.5C566.02,-135.5 652,-135.5 652,-135.5 652,-135.5 652,-53.33 652,-53.33 652,-53.33 652.89,-53.33 652.89,-53.33"/>
<polygon fill="black" stroke="black" points="650.91,-56.83 660.91,-53.33 650.91,-49.83 650.91,-56.83"/>
</g>
<!-- AS3356 -->
<g id="node7" class="node">
<title>AS3356</title>
<g id="a_node7"><a xlink:href="/search?q=AS3356" xlink:title="Lumen (Level 3)">
<polygon fill="white" stroke="#005ea5" stroke-width="3" points="625,-126 559,-126 559,-90 625,-90 625,-126"/>
<text text-anchor="start" x="567" y="-109.8" font-family="Monospace" font-weight="bold" font-size="14.00">AS3356</text>
<text text-anchor="start" x="576.5" y="-99" font-family="Monospace" font-size="10.00">Lumen</text>
</a>
</g>
</g>
<!-- AS174&#45;&gt;AS3356 -->
<g id="edge19" class="edge">
<title>AS174&#45;&gt;AS3356</title>
<path fill="none" stroke="black" d="M481,-126.67C481,-120.81 481,-115.8 481,-115.8 481,-115.8 549,-115.8 549,-115.8"/>
<polygon fill="black" stroke="black" points="549,-119.3 559,-115.8 549,-112.3 549,-119.3"/>
</g>
<!-- AS1299 -->
<g id="node3" class="node">
<title>AS1299</title>
<g id="a_node3"><a xlink:href="/search?q=AS1299" xlink:title="Arelion (fka. Telia Carrier)">
<polygon fill="white" stroke="#005ea5" stroke-width="3" points="727,-126 661,-126 661,-90 727,-90 727,-126"/>
<text text-anchor="start" x="669" y="-109.8" font-family="Monospace" font-weight="bold" font-size="14.00">AS1299</text>
<text text-anchor="start" x="672.5" y="-99" font-family="Monospace" font-size="10.00">Arelion</text>
</a>
</g>
</g>
<!-- AS2914 -->
<g id="node4" class="node">
<title>AS2914</title>
<g id="a_node4"><a xlink:href="/search?q=AS2914" xlink:title="NTT America, Inc.">
<polygon fill="white" stroke="#005ea5" stroke-width="3" points="523,-254 457,-254 457,-218 523,-218 523,-254"/>
<text text-anchor="start" x="465" y="-237.8" font-family="Monospace" font-weight="bold" font-size="14.00">AS2914</text>
<text text-anchor="start" x="480.5" y="-227" font-family="Monospace" font-size="10.00">NTT</text>
</a>
</g>
</g>
<!-- AS2914&#45;&gt;AS1299 -->
<g id="edge7" class="edge">
<title>AS2914&#45;&gt;AS1299</title>
<path fill="none" stroke="black" d="M481,-217.93C481,-208.54 481,-199 481,-199 481,-199 683,-199 683,-199 683,-199 683,-136.42 683,-136.42"/>
<polygon fill="black" stroke="black" points="686.5,-136.42 683,-126.42 679.5,-136.42 686.5,-136.42"/>
</g>
<!-- AS3320 -->
<g id="node6" class="node">
<title>AS3320</title>
<g id="a_node6"><a xlink:href="/search?q=AS3320" xlink:title="Deutsche Telekom AG">
<polygon fill="white" stroke="#005ea5" stroke-width="3" points="625,-180 559,-180 559,-144 625,-144 625,-180"/>
<text text-anchor="start" x="567" y="-163.8" font-family="Monospace" font-weight="bold" font-size="14.00">AS3320</text>
<text text-anchor="start" x="579.5" y="-153" font-family="Monospace" font-size="10.00">DTAG</text>
</a>
</g>
</g>
<!-- AS2914&#45;&gt;AS3320 -->
<g id="edge5" class="edge">
<title>AS2914&#45;&gt;AS3320</title>
<path fill="none" stroke="black" d="M500,-217.69C500,-198.62 500,-171.5 500,-171.5 500,-171.5 548.79,-171.5 548.79,-171.5"/>
<polygon fill="black" stroke="black" points="548.79,-175 558.79,-171.5 548.79,-168 548.79,-175"/>
</g>
<!-- AS2914&#45;&gt;AS3356 -->
<g id="edge4" class="edge">
<title>AS2914&#45;&gt;AS3356</title>
<path fill="none" stroke="black" d="M523.16,-230C532.9,-230 541,-230 541,-230 541,-230 541,-122.6 541,-122.6 541,-122.6 548.84,-122.6 548.84,-122.6"/>
<polygon fill="black" stroke="black" points="548.84,-126.1 558.84,-122.6 548.84,-119.1 548.84,-126.1"/>
</g>
<!-- AS3491 -->
<g id="node8" class="node">
<title>AS3491</title>
<g id="a_node8"><a xlink:href="/search?q=AS3491" xlink:title="PCCW Global, Inc.">
<polygon fill="white" stroke="#005ea5" stroke-width="3" points="727,-308 661,-308 661,-272 727,-272 727,-308"/>
<text text-anchor="start" x="669" y="-291.8" font-family="Monospace" font-weight="bold" font-size="14.00">AS3491</text>
<text text-anchor="start" x="681.5" y="-281" font-family="Monospace" font-size="10.00">PCCW</text>
</a>
</g>
</g>
<!-- AS2914&#45;&gt;AS3491 -->
<g id="edge15" class="edge">
<title>AS2914&#45;&gt;AS3491</title>
<path fill="none" stroke="black" d="M471,-254.16C471,-259.04 471,-263 471,-263 471,-263 705,-263 705,-263 705,-263 705,-263.88 705,-263.88"/>
<polygon fill="black" stroke="black" points="701.5,-261.84 705,-271.84 708.5,-261.84 701.5,-261.84"/>
</g>
<!-- AS5511 -->
<g id="node9" class="node">
<title>AS5511</title>
<g id="a_node9"><a xlink:href="/search?q=AS5511" xlink:title="Orange S.A.">
<polygon fill="white" stroke="#005ea5" stroke-width="3" points="625,-254 559,-254 559,-218 625,-218 625,-254"/>
<text text-anchor="start" x="567" y="-237.8" font-family="Monospace" font-weight="bold" font-size="14.00">AS5511</text>
<text text-anchor="start" x="573.5" y="-227" font-family="Monospace" font-size="10.00">Orange</text>
</a>
</g>
</g>
<!-- AS2914&#45;&gt;AS5511 -->
<g id="edge22" class="edge">
<title>AS2914&#45;&gt;AS5511</title>
<path fill="none" stroke="black" d="M523.12,-242C523.12,-242 548.7,-242 548.7,-242"/>
<polygon fill="black" stroke="black" points="548.7,-245.5 558.7,-242 548.7,-238.5 548.7,-245.5"/>
</g>
<!-- AS6453 -->
<g id="node10" class="node">
<title>AS6453</title>
<g id="a_node10"><a xlink:href="/search?q=AS6453" xlink:title="TATA Communications (America) Inc">
<polygon fill="white" stroke="#005ea5" stroke-width="3" points="625,-308 559,-308 559,-272 625,-272 625,-308"/>
<text text-anchor="start" x="567" y="-291.8" font-family="Monospace" font-weight="bold" font-size="14.00">AS6453</text>
<text text-anchor="start" x="579.5" y="-281" font-family="Monospace" font-size="10.00">TATA</text>
</a>
</g>
</g>
<!-- AS2914&#45;&gt;AS6453 -->
<g id="edge17" class="edge">
<title>AS2914&#45;&gt;AS6453</title>
<path fill="none" stroke="black" d="M510,-254.28C510,-269.95 510,-290 510,-290 510,-290 548.65,-290 548.65,-290"/>
<polygon fill="black" stroke="black" points="548.65,-293.5 558.65,-290 548.65,-286.5 548.65,-293.5"/>
</g>
<!-- AS6762 -->
<g id="node12" class="node">
<title>AS6762</title>
<g id="a_node12"><a xlink:href="/search?q=AS6762" xlink:title="Telecom Italia Sparkle (Seabone)">
<polygon fill="white" stroke="#005ea5" stroke-width="3" points="625,-362 559,-362 559,-326 625,-326 625,-362"/>
<text text-anchor="start" x="567" y="-345.8" font-family="Monospace" font-weight="bold" font-size="14.00">AS6762</text>
<text text-anchor="start" x="570.5" y="-335" font-family="Monospace" font-size="10.00">Sparkle</text>
</a>
</g>
</g>
<!-- AS2914&#45;&gt;AS6762 -->
<g id="edge23" class="edge">
<title>AS2914&#45;&gt;AS6762</title>
<path fill="none" stroke="black" d="M497,-254.32C497,-285.13 497,-344 497,-344 497,-344 548.77,-344 548.77,-344"/>
<polygon fill="black" stroke="black" points="548.77,-347.5 558.77,-344 548.77,-340.5 548.77,-347.5"/>
</g>
<!-- AS7018 -->
<g id="node14" class="node">
<title>AS7018</title>
<g id="a_node14"><a xlink:href="/search?q=AS7018" xlink:title="AT&amp;T Enterprises, LLC">
<polygon fill="white" stroke="#005ea5" stroke-width="3" points="625,-416 559,-416 559,-380 625,-380 625,-416"/>
<text text-anchor="start" x="567" y="-399.8" font-family="Monospace" font-weight="bold" font-size="14.00">AS7018</text>
<text text-anchor="start" x="579.5" y="-389" font-family="Monospace" font-size="10.00">AT&amp;T</text>
</a>
</g>
</g>
<!-- AS2914&#45;&gt;AS7018 -->
<g id="edge20" class="edge">
<title>AS2914&#45;&gt;AS7018</title>
<path fill="none" stroke="black" d="M484,-254.27C484,-296.64 484,-398 484,-398 484,-398 548.72,-398 548.72,-398"/>
<polygon fill="black" stroke="black" points="548.72,-401.5 558.72,-398 548.72,-394.5 548.72,-401.5"/>
</g>
<!-- AS3356&#45;&gt;AS174 -->
<g id="edge6" class="edge">
<title>AS3356&#45;&gt;AS174</title>
<path fill="none" stroke="black" d="M558.79,-119.2C532.43,-119.2 500,-119.2 500,-119.2 500,-119.2 500,-119.96 500,-119.96"/>
<polygon fill="black" stroke="black" points="496.5,-116.8 500,-126.8 503.5,-116.8 496.5,-116.8"/>
</g>
<!-- AS3356&#45;&gt;AS1299 -->
<g id="edge9" class="edge">
<title>AS3356&#45;&gt;AS1299</title>
<path fill="none" stroke="black" d="M625.12,-108C625.12,-108 650.7,-108 650.7,-108"/>
<polygon fill="black" stroke="black" points="650.7,-111.5 660.7,-108 650.7,-104.5 650.7,-111.5"/>
</g>
<!-- AS3356&#45;&gt;AS3257 -->
<g id="edge21" class="edge">
<title>AS3356&#45;&gt;AS3257</title>
<path fill="none" stroke="black" d="M625.16,-99C634.9,-99 643,-99 643,-99 643,-99 643,-44.67 643,-44.67 643,-44.67 650.84,-44.67 650.84,-44.67"/>
<polygon fill="black" stroke="black" points="650.84,-48.17 660.84,-44.67 650.84,-41.17 650.84,-48.17"/>
</g>
<!-- AS3356&#45;&gt;AS3491 -->
<g id="edge13" class="edge">
<title>AS3356&#45;&gt;AS3491</title>
<path fill="none" stroke="black" d="M625.09,-117C630.3,-117 634,-117 634,-117 634,-117 634,-290 634,-290 634,-290 650.84,-290 650.84,-290"/>
<polygon fill="black" stroke="black" points="650.84,-293.5 660.84,-290 650.84,-286.5 650.84,-293.5"/>
</g>
<!-- AS6461 -->
<g id="node11" class="node">
<title>AS6461</title>
<g id="a_node11"><a xlink:href="/search?q=AS6461" xlink:title="Zayo Bandwidth">
<polygon fill="white" stroke="#005ea5" stroke-width="3" points="625,-72 559,-72 559,-36 625,-36 625,-72"/>
<text text-anchor="start" x="567" y="-55.8" font-family="Monospace" font-weight="bold" font-size="14.00">AS6461</text>
<text text-anchor="start" x="579.5" y="-45" font-family="Monospace" font-size="10.00">Zayo</text>
</a>
</g>
</g>
<!-- AS6461&#45;&gt;AS1299 -->
<g id="edge1" class="edge">
<title>AS6461&#45;&gt;AS1299</title>
<path fill="none" stroke="black" d="M625.12,-67C654.9,-67 694,-67 694,-67 694,-67 694,-79.9 694,-79.9"/>
<polygon fill="black" stroke="black" points="690.5,-79.9 694,-89.9 697.5,-79.9 690.5,-79.9"/>
</g>
<!-- AS6830 -->
<g id="node13" class="node">
<title>AS6830</title>
<g id="a_node13"><a xlink:href="/search?q=AS6830" xlink:title="Liberty Global Europe Holding B.V.">
<polygon fill="white" stroke="#005ea5" stroke-width="3" points="523,-109 457,-109 457,-73 523,-73 523,-109"/>
<text text-anchor="start" x="465" y="-92.8" font-family="Monospace" font-weight="bold" font-size="14.00">AS6830</text>
<text text-anchor="start" x="468.5" y="-82" font-family="Monospace" font-size="10.00">Liberty</text>
</a>
</g>
</g>
<!-- AS9516 -->
<g id="node15" class="node">
<title>AS9516</title>
<g id="a_node15"><a xlink:href="/search?q=AS9516" xlink:title="SAKURA LINK LIMITED">
<polygon fill="none" stroke="black" points="302,-109 236,-109 236,-73 302,-73 302,-109"/>
<text text-anchor="start" x="244" y="-92.8" font-family="Monospace" font-weight="bold" font-size="14.00">AS9516</text>
<text text-anchor="start" x="250.5" y="-82" font-family="Monospace" font-size="10.00">SAKURA</text>
</a>
</g>
</g>
<!-- AS137409 -->
<g id="node17" class="node">
<title>AS137409</title>
<g id="a_node17"><a xlink:href="/search?q=AS137409" xlink:title="GSL Networks Pty LTD">
<polygon fill="none" stroke="black" points="421,-109 338,-109 338,-73 421,-73 421,-109"/>
<text text-anchor="start" x="346" y="-92.8" font-family="Monospace" font-weight="bold" font-size="14.00">AS137409</text>
<text text-anchor="start" x="370" y="-82" font-family="Monospace" font-size="10.00">GSL</text>
</a>
</g>
</g>
<!-- AS9516&#45;&gt;AS137409 -->
<g id="edge10" class="edge">
<title>AS9516&#45;&gt;AS137409</title>
<path fill="none" stroke="black" d="M302.15,-91C302.15,-91 327.74,-91 327.74,-91"/>
<polygon fill="black" stroke="black" points="327.74,-94.5 337.74,-91 327.74,-87.5 327.74,-94.5"/>
</g>
<!-- AS49304&#45;&gt;AS9516 -->
<g id="edge16" class="edge">
<title>AS49304&#45;&gt;AS9516</title>
<path fill="none" stroke="black" d="M200.07,-91C200.07,-91 225.67,-91 225.67,-91"/>
<polygon fill="black" stroke="black" points="225.67,-94.5 235.67,-91 225.67,-87.5 225.67,-94.5"/>
</g>
<!-- AS137409&#45;&gt;AS174 -->
<g id="edge14" class="edge">
<title>AS137409&#45;&gt;AS174</title>
<path fill="none" stroke="black" d="M401,-109.28C401,-124.95 401,-145 401,-145 401,-145 450.86,-145 450.86,-145"/>
<polygon fill="black" stroke="black" points="450.86,-148.5 460.86,-145 450.86,-141.5 450.86,-148.5"/>
</g>
<!-- AS137409&#45;&gt;AS2914 -->
<g id="edge2" class="edge">
<title>AS137409&#45;&gt;AS2914</title>
<path fill="none" stroke="black" d="M380,-109.07C380,-147.94 380,-236 380,-236 380,-236 447,-236 447,-236"/>
<polygon fill="black" stroke="black" points="447,-239.5 457,-236 447,-232.5 447,-239.5"/>
</g>
<!-- AS137409&#45;&gt;AS3356 -->
<g id="edge3" class="edge">
<title>AS137409&#45;&gt;AS3356</title>
<path fill="none" stroke="black" d="M359,-109.06C359,-111.06 359,-112.4 359,-112.4 359,-112.4 548.62,-112.4 548.62,-112.4"/>
<polygon fill="black" stroke="black" points="548.62,-115.9 558.62,-112.4 548.62,-108.9 548.62,-115.9"/>
</g>
<!-- AS137409&#45;&gt;AS6461 -->
<g id="edge8" class="edge">
<title>AS137409&#45;&gt;AS6461</title>
<path fill="none" stroke="black" d="M380,-72.93C380,-63.54 380,-54 380,-54 380,-54 548.88,-54 548.88,-54"/>
<polygon fill="black" stroke="black" points="548.88,-57.5 558.88,-54 548.87,-50.5 548.88,-57.5"/>
</g>
<!-- AS137409&#45;&gt;AS6830 -->
<g id="edge18" class="edge">
<title>AS137409&#45;&gt;AS6830</title>
<path fill="none" stroke="black" d="M421.28,-91C421.28,-91 446.77,-91 446.77,-91"/>
<polygon fill="black" stroke="black" points="446.77,-94.5 456.77,-91 446.77,-87.5 446.77,-94.5"/>
</g>
</g>
</svg>
